<svg width="785" height="621" xmlns="http://www.w3.org/2000/svg" xmlns:xlink="http://www.w3.org/1999/xlink">
 <defs>
  <filter color-interpolation-filters="sRGB" height="1" width="1" y="0" x="0" id="imagebot_6">
   <feMorphology result="result0" in="SourceGraphic" radius="4" id="imagebot_19"/>
   <feGaussianBlur result="result91" stdDeviation="8" in="result0" id="imagebot_18"/>
   <feComposite in="SourceGraphic" operator="in" in2="result91" id="imagebot_17"/>
  </filter>
  <filter color-interpolation-filters="sRGB" height="1" width="1" y="0" x="0" id="imagebot_4">
   <feMorphology result="result0" in="SourceGraphic" radius="4" id="imagebot_16"/>
   <feGaussianBlur result="result91" stdDeviation="8" in="result0" id="imagebot_15"/>
   <feComposite in="SourceGraphic" operator="in" in2="result91" id="imagebot_14"/>
  </filter>
 </defs>
 <metadata id="imagebot_8">image/svg+xml</metadata>
 <g label="boom" id="imagebot_2">
  <path transform="translate(0 -0.0000038147) matrix(1 0 0 1 -142.097 -63.994)" label="boom" fill="#f56d3c" stroke="#ff2626" stroke-width="5" stroke-miterlimit="4" id="imagebot_7" d="M 314.525 144.597 C 360.825 176.222 421.261 232.791 375.741 102.379 C 429.778 195.227 459.55 211.97 451.734 110.823 C 477.789 183.139 502.375 165.858 525.615 66.494 C 539.194 260.789 564.457 195.104 588.943 146.708 C 592.803 160.752 583.643 208.848 603.719 180.483 C 665.596 225.985 719.55 150.303 759.926 104.49 C 696.715 217.357 794.42 179.061 863.888 167.29 C 772.476 239 889.374 202.14 911.911 191.037 C 882.856 216.152 845.984 244.845 897.135 233.255 C 840.03 286.732 832.835 331.001 920.355 357.799 C 889.487 372.865 879.402 404.085 924.576 404.239 C 896.183 406.536 886.533 421.513 924.576 427.459 C 794.945 452.148 874.406 489.931 911.911 520.339 C 723.532 468.168 828.7 578.96 897.135 630.106 C 775.958 557.944 640.444 500.777 753.593 632.217 C 724.784 616.491 684.903 583.465 698.71 634.327 C 653.764 574.491 643.26 585.564 645.937 623.773 C 602.135 575.378 578.637 597.126 565.723 655.436 C 544.171 642.69 539.672 578.789 479.175 682.878 C 486.989 635.273 465.64 631.411 428.514 651.215 C 428.969 592.711 381.817 660.547 367.297 674.435 C 374.251 596.745 339.283 626.855 308.192 646.993 C 333.891 560.748 234.91 610.518 175.205 617.44 C 232.544 581.932 285.584 547.107 221.645 530.893 C 300.016 475.605 198.886 482.934 168.872 465.455 C 197.958 452.523 257.665 449.095 211.09 412.682 C 263.288 374.326 175.264 357.214 144.597 331.413 C 203.139 326.034 276.048 324.955 210.035 287.084 C 237.535 288.52 259.385 291.881 225.867 262.808 C 272.86 285.24 247.173 222.351 232.2 172.039 C 292.602 228.95 374.069 263.514 314.525 144.597 L 314.525 144.597 Z"/>
  <path label="boom" fill="#fffe48" filter="url(#imagebot_6)" transform="translate(0 -0.0000038147) matrix(0.836419 0 0 0.835013 -53.1562 -2.92213)" d="M 314.525 144.597 C 360.825 176.222 421.261 232.791 375.741 102.379 C 429.778 195.227 459.55 211.97 451.734 110.823 C 477.789 183.139 502.375 165.858 525.615 66.494 C 539.194 260.789 564.457 195.104 588.943 146.708 C 592.803 160.752 583.643 208.848 603.719 180.483 C 665.596 225.985 719.55 150.303 759.926 104.49 C 696.715 217.357 794.42 179.061 863.888 167.29 C 772.476 239 889.374 202.14 911.911 191.037 C 882.856 216.152 845.984 244.845 897.135 233.255 C 840.03 286.732 832.835 331.001 920.355 357.799 C 889.487 372.865 879.402 404.085 924.576 404.239 C 896.183 406.536 886.533 421.513 924.576 427.459 C 794.945 452.148 874.406 489.931 911.911 520.339 C 723.532 468.168 828.7 578.96 897.135 630.106 C 775.958 557.944 640.444 500.777 753.593 632.217 C 724.784 616.491 684.903 583.465 698.71 634.327 C 653.764 574.491 643.26 585.564 645.937 623.773 C 602.135 575.378 578.637 597.126 565.723 655.436 C 544.171 642.69 539.672 578.789 479.175 682.878 C 486.989 635.273 465.64 631.411 428.514 651.215 C 428.969 592.711 381.817 660.547 367.297 674.435 C 374.251 596.745 339.283 626.855 308.192 646.993 C 333.891 560.748 234.91 610.518 175.205 617.44 C 232.544 581.932 285.584 547.107 221.645 530.893 C 300.016 475.605 198.886 482.934 168.872 465.455 C 197.958 452.523 257.665 449.095 211.09 412.682 C 263.288 374.326 175.264 357.214 144.597 331.413 C 203.139 326.034 276.048 324.955 210.035 287.084 C 237.535 288.52 259.385 291.881 225.867 262.808 C 272.86 285.24 247.173 222.351 232.2 172.039 C 292.602 228.95 374.069 263.514 314.525 144.597 L 314.525 144.597 Z" id="imagebot_5"/>
  <path label="boom" fill="#faffac" stroke="#ff2626" stroke-width="1.03374" stroke-miterlimit="4" filter="url(#imagebot_4)" transform="translate(0 -0.0000038147) matrix(1.06887 0 0 0.875493 -139.362 -24.8061)" d="M 406.184 240.433 C 474.096 366.074 501.176 322.861 486.243 220.726 C 507.056 318.861 531.469 409.15 529.352 194.861 C 536.694 370.61 606.613 345.93 666.069 217.031 C 582.071 325.373 657.218 323.182 754.75 267.53 C 670.684 314.421 639.921 363.784 759.677 364.833 C 591.022 372.101 719.205 399.706 762.14 405.478 C 736.699 444.715 573.423 371.915 630.35 526.183 C 578.353 370.893 557.313 445.637 552.754 538.5 C 538.537 450.44 526.698 412.913 472.695 536.036 C 479.087 377.089 445.373 458.702 402.489 533.573 C 440.104 429.657 318.405 441.288 318.405 441.288 C 343.112 424.051 374.902 355.383 307.034 349.437 C 405.228 393.962 409.008 351.501 358.148 256.445 C 420.578 352.127 476.793 392.244 406.184 240.433 Z" id="imagebot_3"/>
  <title>boom</title>
 </g>
 <g id="imagebot_20">
  <title>Layer 2</title>
 </g>
 <g id="imagebot_21">
  <title>Layer 3</title>
  <image transform="translate(-17.1875 -4.6875) matrix(2.14727 0 0 2.14727 175.001 217.188)" height="105" width="261" xlink:href="http://openclipart.org/image/800px/svg_to_png/27538/secretlondon_Blue_eye.png" id="imagebot_31"/>
 </g>
</svg>